<mxfile host="app.diagrams.net" modified="2023-06-10T11:51:06.488Z" agent="Mozilla/5.0 (Windows NT 10.0; Win64; x64) AppleWebKit/537.36 (KHTML, like Gecko) Chrome/112.0.5615.138 Safari/537.36" etag="a222LTT2aHZSExz3qbva" version="21.3.7" type="device">
  <diagram name="Page-1" id="DyIk9ZgybP_S6Eu9Qfgz">
    <mxGraphModel dx="1050" dy="548" grid="1" gridSize="10" guides="1" tooltips="1" connect="1" arrows="1" fold="1" page="1" pageScale="1" pageWidth="850" pageHeight="1100" math="0" shadow="0">
      <root>
        <mxCell id="0" />
        <mxCell id="1" parent="0" />
        <mxCell id="r0s2eFXhvwCnNdHscX9B-8" value="" style="edgeStyle=orthogonalEdgeStyle;rounded=0;orthogonalLoop=1;jettySize=auto;html=1;" parent="1" source="r0s2eFXhvwCnNdHscX9B-1" target="r0s2eFXhvwCnNdHscX9B-6" edge="1">
          <mxGeometry relative="1" as="geometry" />
        </mxCell>
        <mxCell id="r0s2eFXhvwCnNdHscX9B-1" value="&lt;font style=&quot;font-size: 16px;&quot;&gt;Початок&lt;/font&gt;" style="rounded=1;whiteSpace=wrap;html=1;arcSize=50;" parent="1" vertex="1">
          <mxGeometry x="140" y="70" width="120" height="50" as="geometry" />
        </mxCell>
        <mxCell id="r0s2eFXhvwCnNdHscX9B-5" value="" style="edgeStyle=orthogonalEdgeStyle;rounded=0;orthogonalLoop=1;jettySize=auto;html=1;" parent="1" edge="1">
          <mxGeometry relative="1" as="geometry">
            <mxPoint x="200" y="440" as="sourcePoint" />
            <mxPoint x="200" y="450" as="targetPoint" />
          </mxGeometry>
        </mxCell>
        <mxCell id="r0s2eFXhvwCnNdHscX9B-10" value="" style="edgeStyle=orthogonalEdgeStyle;rounded=0;orthogonalLoop=1;jettySize=auto;html=1;" parent="1" source="r0s2eFXhvwCnNdHscX9B-6" target="r0s2eFXhvwCnNdHscX9B-9" edge="1">
          <mxGeometry relative="1" as="geometry" />
        </mxCell>
        <mxCell id="r0s2eFXhvwCnNdHscX9B-6" value="&lt;font style=&quot;font-size: 16px;&quot;&gt;Зчитати перші два байти(значення w та h)&lt;/font&gt;" style="rounded=0;whiteSpace=wrap;html=1;" parent="1" vertex="1">
          <mxGeometry x="90" y="140" width="220" height="60" as="geometry" />
        </mxCell>
        <mxCell id="r0s2eFXhvwCnNdHscX9B-13" value="" style="edgeStyle=orthogonalEdgeStyle;rounded=0;orthogonalLoop=1;jettySize=auto;html=1;" parent="1" source="r0s2eFXhvwCnNdHscX9B-9" target="r0s2eFXhvwCnNdHscX9B-11" edge="1">
          <mxGeometry relative="1" as="geometry" />
        </mxCell>
        <mxCell id="r0s2eFXhvwCnNdHscX9B-9" value="&lt;font style=&quot;font-size: 16px;&quot;&gt;Декодування наступних елементів до цілого числа&amp;nbsp;&lt;/font&gt;" style="rounded=1;whiteSpace=wrap;html=1;arcSize=0;" parent="1" vertex="1">
          <mxGeometry x="80" y="220" width="240" height="90" as="geometry" />
        </mxCell>
        <mxCell id="r0s2eFXhvwCnNdHscX9B-14" value="" style="edgeStyle=orthogonalEdgeStyle;rounded=0;orthogonalLoop=1;jettySize=auto;html=1;" parent="1" source="r0s2eFXhvwCnNdHscX9B-11" target="r0s2eFXhvwCnNdHscX9B-12" edge="1">
          <mxGeometry relative="1" as="geometry" />
        </mxCell>
        <mxCell id="r0s2eFXhvwCnNdHscX9B-11" value="&lt;font style=&quot;font-size: 16px;&quot;&gt;&amp;nbsp;Розбиття значень&lt;br&gt;отриманих&amp;nbsp; чисел на массив&lt;br&gt;із трьох елементів шляхом&lt;br&gt;байтового здвигу курсовра&amp;nbsp;&amp;nbsp;&lt;/font&gt;" style="rounded=0;whiteSpace=wrap;html=1;" parent="1" vertex="1">
          <mxGeometry x="72.5" y="330" width="255" height="90" as="geometry" />
        </mxCell>
        <mxCell id="r0s2eFXhvwCnNdHscX9B-12" value="&lt;font style=&quot;font-size: 16px;&quot;&gt;Кінець&lt;/font&gt;" style="rounded=1;whiteSpace=wrap;html=1;arcSize=50;" parent="1" vertex="1">
          <mxGeometry x="140" y="450" width="120" height="50" as="geometry" />
        </mxCell>
      </root>
    </mxGraphModel>
  </diagram>
</mxfile>
